<svg width="19" height="22" viewBox="0 0 19 22" fill="none" xmlns="http://www.w3.org/2000/svg">
<path d="M18.1128 7.35032C18.0125 7.40881 15.6255 8.64326 15.6255 11.3803C15.738 14.5017 18.6378 15.5964 18.6875 15.5964C18.6378 15.6549 18.2497 17.0876 17.1003 18.5895C16.188 19.8832 15.1755 21.1875 13.638 21.1875C12.1755 21.1875 11.6505 20.3253 9.96302 20.3253C8.15079 20.3253 7.63802 21.1875 6.25051 21.1875C4.71301 21.1875 3.6255 19.8133 2.66355 18.5317C1.41381 16.8544 0.351583 14.2222 0.314083 11.6948C0.288812 10.3555 0.564355 9.03904 1.26381 7.92082C2.25104 6.35973 4.01355 5.3 5.93828 5.26506C7.41301 5.21872 8.72552 6.20855 9.62552 6.20855C10.488 6.20855 12.1005 5.26506 13.925 5.26506C14.7125 5.26582 16.8125 5.48688 18.1128 7.35032ZM9.50079 4.99766C9.23829 3.77461 9.96302 2.55156 10.638 1.77139C11.5005 0.827892 12.8628 0.1875 14.0375 0.1875C14.1125 1.41055 13.6372 2.61005 12.7878 3.48366C12.0255 4.42715 10.713 5.13744 9.50079 4.99766Z" fill="url(#paint0_linear_182_130)"/>
<defs>
<linearGradient id="paint0_linear_182_130" x1="9.5" y1="0.1875" x2="9.5" y2="21.1875" gradientUnits="userSpaceOnUse">
<stop stop-color="#293645"/>
<stop offset="1" stop-color="#0F1011"/>
</linearGradient>
</defs>
</svg>
