<svg width="22" height="18" viewBox="0 0 22 18" fill="none" xmlns="http://www.w3.org/2000/svg">
<path d="M13.4281 0.369629H9.4035C8.99189 0.369629 8.6582 0.703316 8.6582 1.11493V17.0072C8.6582 17.4188 8.99189 17.7525 9.4035 17.7525H13.4281C13.8397 17.7525 14.1734 17.4188 14.1734 17.0072V1.11493C14.1734 0.703267 13.8397 0.369629 13.4281 0.369629Z" fill="#D5D6D7"/>
<path d="M21.2042 9.63599H17.1796C16.768 9.63599 16.4343 9.96967 16.4343 10.3813V17.012C16.4343 17.4236 16.768 17.7573 17.1796 17.7573H21.2042C21.6159 17.7573 21.9495 17.4236 21.9495 17.012V10.3813C21.9495 9.96962 21.6159 9.63599 21.2042 9.63599Z" fill="#D5D6D7"/>
<path d="M5.67715 6.30713H1.65253C1.24091 6.30713 0.907227 6.64082 0.907227 7.05243V17.0022C0.907227 17.4138 1.24091 17.7475 1.65253 17.7475H5.67715C6.08876 17.7475 6.42245 17.4138 6.42245 17.0022V7.05243C6.42245 6.64082 6.08876 6.30713 5.67715 6.30713Z" fill="#D5D6D7"/>
</svg>
