<svg width="59" height="58" viewBox="0 0 59 58" fill="none" xmlns="http://www.w3.org/2000/svg">
<path d="M29.7925 0C14.0332 0 0.988525 12.8642 0.988525 28.6771C0.988525 44.4901 14.0332 57.5792 29.7925 57.5792C45.5517 57.5792 58.3722 44.4901 58.3722 28.6771C58.3722 12.8642 45.5517 0 29.7925 0ZM44.9229 32.0509H33.1548V44.0841C33.1548 45.9442 31.6451 47.4579 29.7925 47.4579C27.9387 47.4579 26.4301 45.9442 26.4301 44.0841V32.0509H14.4378C12.5841 32.0509 11.0755 30.5372 11.0755 28.6771C11.0755 26.8171 12.5841 25.3034 14.4378 25.3034H26.4301V13.4951C26.4301 11.635 27.9387 10.1213 29.7925 10.1213C31.6451 10.1213 33.1548 11.635 33.1548 13.4951V25.3034H44.9229C46.7756 25.3034 48.2853 26.8171 48.2853 28.6771C48.2853 30.5372 46.7756 32.0509 44.9229 32.0509Z" fill="#7876A8"/>
</svg>
