<svg width="19" height="19" viewBox="0 0 19 19" fill="none" xmlns="http://www.w3.org/2000/svg">
<path d="M9.5821 9.33832C11.0644 9.33832 12.1401 8.60768 12.6928 7.22541C13.117 6.16455 13.1742 4.91313 13.1742 3.82888C13.1742 1.8471 11.8314 0.66394 9.5821 0.66394C7.33284 0.66394 5.98999 1.84706 5.98999 3.82888C5.98999 4.91313 6.04721 6.16455 6.47139 7.22541C7.02415 8.60768 8.0998 9.33832 9.5821 9.33832Z" fill="#D5D6D7"/>
<path d="M10.9151 10.2747H8.22825C5.65539 10.2747 3.56226 12.3678 3.56226 14.9407V15.2595C3.56226 16.7992 4.81483 18.0518 6.35452 18.0518H12.7889C14.3285 18.0518 15.5812 16.7992 15.5812 15.2595V14.9407C15.5811 12.3678 13.488 10.2747 10.9151 10.2747Z" fill="#D5D6D7"/>
<path d="M14.2613 3.82883C14.2613 5.63675 14.0811 7.61891 12.8806 9.00135C13.18 9.11881 13.5155 9.17898 13.8846 9.17898C15.0074 9.17898 15.8221 8.62572 16.2407 7.57891C16.552 6.80047 16.5939 5.89278 16.5939 5.1075C16.5939 3.72996 15.7195 2.79559 14.1355 2.70874C14.2187 3.06072 14.2613 3.43509 14.2613 3.82883Z" fill="#D5D6D7"/>
<path d="M5.34119 9.17919C5.69124 9.17919 6.01128 9.12541 6.29877 9.01966C5.08276 7.63542 4.90254 5.63502 4.90254 3.82904C4.90254 3.4368 4.9448 3.06375 5.02744 2.71289C3.56692 2.81469 2.63184 3.67043 2.63184 5.10768C2.63184 5.89292 2.6738 6.80065 2.98507 7.57912C3.40369 8.62593 4.21838 9.17919 5.34119 9.17919Z" fill="#D5D6D7"/>
<path d="M2.47495 14.9405C2.47495 12.8448 3.60143 11.0074 5.2806 10.0016H4.37947C2.46489 10.0016 0.907227 11.5593 0.907227 13.4739V13.7004C0.907227 14.6947 1.58859 15.5328 2.50893 15.7726C2.46856 15.4685 2.47495 15.2828 2.47495 14.9405Z" fill="#D5D6D7"/>
<path d="M14.8319 10.0016H13.8633C15.5422 11.0075 16.6684 12.845 16.6684 14.9405C16.6684 15.2796 16.6753 15.4742 16.6321 15.7891C17.5877 15.5746 18.3041 14.7198 18.3041 13.7004V13.4739C18.3041 11.5593 16.7464 10.0016 14.8319 10.0016Z" fill="#D5D6D7"/>
</svg>
