<svg width="40" height="40" viewBox="0 0 40 40" fill="none" xmlns="http://www.w3.org/2000/svg">
<path d="M25.3662 6.25L5.18312 26.4331C5.10923 26.5071 5.05508 26.5984 5.02562 26.6987L1.90062 37.3237C1.86905 37.4314 1.86704 37.5456 1.89481 37.6543C1.92257 37.763 1.97909 37.8622 2.05842 37.9416C2.13776 38.0209 2.23699 38.0774 2.3457 38.1052C2.45441 38.133 2.56859 38.1309 2.67625 38.0994L13.3012 34.9744C13.4016 34.9449 13.4929 34.8908 13.5669 34.8169L33.75 14.6337L25.3662 6.25Z" fill="#212121"/>
<path d="M37.2094 6.755L33.245 2.79063C32.6585 2.20551 31.8638 1.87691 31.0353 1.87691C30.2068 1.87691 29.4122 2.20551 28.8256 2.79063L26.25 5.36625L34.6338 13.75L37.2094 11.1744C37.7945 10.5878 38.1231 9.79318 38.1231 8.96469C38.1231 8.1362 37.7945 7.34154 37.2094 6.755Z" fill="#212121"/>
</svg>
