<svg width="19" height="18" viewBox="0 0 19 18" fill="none" xmlns="http://www.w3.org/2000/svg">
<path d="M4.85888 0.337158C4.54445 0.337158 4.24291 0.462063 4.02058 0.684394C3.79824 0.906725 3.67334 1.20827 3.67334 1.52269V3.89377C3.67334 3.99858 3.71497 4.09909 3.78909 4.1732C3.8632 4.24731 3.96371 4.28895 4.06852 4.28895H6.43959C6.5444 4.28895 6.64492 4.24731 6.71903 4.1732C6.79314 4.09909 6.83477 3.99858 6.83477 3.89377V1.52269C6.83477 1.20827 6.70987 0.906725 6.48754 0.684394C6.2652 0.462063 5.96366 0.337158 5.64923 0.337158H4.85888Z" fill="#D5D6D7"/>
<path d="M13.553 0.337158C13.2385 0.337158 12.937 0.462063 12.7147 0.684394C12.4923 0.906725 12.3674 1.20827 12.3674 1.52269V3.89377C12.3674 3.99858 12.4091 4.09909 12.4832 4.1732C12.5573 4.24731 12.6578 4.28895 12.7626 4.28895H15.1337C15.2385 4.28895 15.339 4.24731 15.4131 4.1732C15.4872 4.09909 15.5289 3.99858 15.5289 3.89377V1.52269C15.5289 1.20827 15.404 0.906725 15.1816 0.684394C14.9593 0.462063 14.6577 0.337158 14.3433 0.337158H13.553Z" fill="#D5D6D7"/>
<path d="M16.3192 2.31311V3.89383C16.3192 4.20825 16.1943 4.5098 15.972 4.73213C15.7496 4.95446 15.4481 5.07936 15.1337 5.07936H12.7626C12.4482 5.07936 12.1466 4.95446 11.9243 4.73213C11.702 4.5098 11.5771 4.20825 11.5771 3.89383V2.31311H7.62527V3.89383C7.62527 4.20825 7.50036 4.5098 7.27803 4.73213C7.0557 4.95446 6.75415 5.07936 6.43973 5.07936H4.06866C3.75423 5.07936 3.45269 4.95446 3.23036 4.73213C3.00802 4.5098 2.88312 4.20825 2.88312 3.89383V2.31311C2.35908 2.31311 1.8565 2.52128 1.48595 2.89184C1.1154 3.26239 0.907227 3.76496 0.907227 4.289V5.86972H18.2951V4.289C18.2951 3.76496 18.0869 3.26239 17.7164 2.89184C17.3458 2.52128 16.8432 2.31311 16.3192 2.31311Z" fill="#D5D6D7"/>
<path d="M0.907227 15.7495C0.907227 16.2736 1.1154 16.7761 1.48595 17.1467C1.8565 17.5172 2.35908 17.7254 2.88312 17.7254H16.3192C16.8432 17.7254 17.3458 17.5172 17.7164 17.1467C18.0869 16.7761 18.2951 16.2736 18.2951 15.7495V6.6604H0.907227V15.7495ZM11.8576 9.70723C11.8208 9.74407 11.777 9.7733 11.7289 9.79324C11.6808 9.81318 11.6292 9.82345 11.5771 9.82345C11.5249 9.82345 11.4733 9.81318 11.4252 9.79324C11.3771 9.7733 11.3333 9.74407 11.2965 9.70723C11.2596 9.67038 11.2304 9.62664 11.2105 9.5785C11.1905 9.53036 11.1803 9.47876 11.1803 9.42665C11.1803 9.37454 11.1905 9.32295 11.2105 9.27481C11.2304 9.22666 11.2596 9.18292 11.2965 9.14608L12.0868 8.35572C12.1424 8.30088 12.213 8.26374 12.2896 8.24897C12.3663 8.2342 12.4456 8.24247 12.5176 8.27273C12.5897 8.30238 12.6515 8.35272 12.6951 8.41742C12.7387 8.48212 12.7622 8.55828 12.7626 8.63629V14.564H13.1578C13.2626 14.564 13.3631 14.6056 13.4372 14.6797C13.5113 14.7538 13.5529 14.8543 13.5529 14.9592C13.5529 15.064 13.5113 15.1645 13.4372 15.2386C13.3631 15.3127 13.2626 15.3543 13.1578 15.3543H11.5771C11.4722 15.3543 11.3717 15.3127 11.2976 15.2386C11.2235 15.1645 11.1819 15.064 11.1819 14.9592C11.1819 14.8543 11.2235 14.7538 11.2976 14.6797C11.3717 14.6056 11.4722 14.564 11.5771 14.564H11.9722V9.58868L11.8576 9.70723ZM8.02044 12.1929H6.04455C5.93974 12.1929 5.83923 12.1513 5.76512 12.0772C5.69101 12.003 5.64937 11.9025 5.64937 11.7977C5.64937 11.6929 5.69101 11.5924 5.76512 11.5183C5.83923 11.4442 5.93974 11.4025 6.04455 11.4025H8.02044C8.12525 11.4025 8.22577 11.3609 8.29988 11.2868C8.37399 11.2127 8.41562 11.1122 8.41562 11.0074V9.42665C8.41562 9.32184 8.37399 9.22133 8.29988 9.14722C8.22577 9.07311 8.12525 9.03147 8.02044 9.03147H6.04455C5.93974 9.03147 5.83923 8.98984 5.76512 8.91573C5.69101 8.84162 5.64937 8.7411 5.64937 8.63629C5.64937 8.53149 5.69101 8.43097 5.76512 8.35686C5.83923 8.28275 5.93974 8.24112 6.04455 8.24112H8.02044C8.33487 8.24112 8.63641 8.36602 8.85875 8.58835C9.08108 8.81068 9.20598 9.11223 9.20598 9.42665V11.0074C9.20532 11.2993 9.09697 11.5807 8.90169 11.7977C9.09697 12.0147 9.20532 12.2962 9.20598 12.5881V14.1688C9.20598 14.4832 9.08108 14.7848 8.85875 15.0071C8.63641 15.2294 8.33487 15.3543 8.02044 15.3543H6.04455C5.93974 15.3543 5.83923 15.3127 5.76512 15.2386C5.69101 15.1645 5.64937 15.064 5.64937 14.9592C5.64937 14.8543 5.69101 14.7538 5.76512 14.6797C5.83923 14.6056 5.93974 14.564 6.04455 14.564H8.02044C8.12525 14.564 8.22577 14.5223 8.29988 14.4482C8.37399 14.3741 8.41562 14.2736 8.41562 14.1688V12.5881C8.41562 12.4833 8.37399 12.3828 8.29988 12.3086C8.22577 12.2345 8.12525 12.1929 8.02044 12.1929Z" fill="#D5D6D7"/>
</svg>
