<svg width="19" height="18" viewBox="0 0 19 18" fill="none" xmlns="http://www.w3.org/2000/svg">
<path d="M17.3407 7.20764L15.9786 7.03448C15.8663 6.6889 15.728 6.35563 15.5664 6.03903L16.4075 4.95591C16.7481 4.51759 16.7082 3.89887 16.3192 3.52213L15.1781 2.38105C14.7977 1.98838 14.179 1.94925 13.74 2.28904L12.6583 3.13018C12.3417 2.96862 12.0084 2.83024 11.6621 2.71794L11.4889 1.35807C11.4237 0.812522 10.9608 0.401733 10.4124 0.401733H8.78948C8.24104 0.401733 7.77809 0.812522 7.71288 1.35589L7.53973 2.71794C7.19342 2.83024 6.86015 2.96789 6.54355 3.13018L5.46115 2.28904C5.02356 1.94925 4.40484 1.98838 4.02738 2.37743L2.8863 3.51779C2.49363 3.89887 2.45378 4.51759 2.79429 4.95663L3.63543 6.03903C3.47314 6.35563 3.33549 6.6889 3.22319 7.03448L1.86332 7.20764C1.31777 7.27284 0.906982 7.73579 0.906982 8.28424V9.9071C0.906982 10.4555 1.31777 10.9185 1.86114 10.9837L3.22319 11.1569C3.33549 11.5024 3.47387 11.8357 3.63543 12.1523L2.79429 13.2354C2.45378 13.6738 2.49363 14.2925 2.88268 14.6692L4.02376 15.8103C4.40484 16.2022 5.02284 16.2414 5.46188 15.9016L6.54427 15.0604C6.86088 15.2227 7.19415 15.3611 7.53973 15.4727L7.71288 16.8318C7.77809 17.3788 8.24104 17.7896 8.78948 17.7896H10.4124C10.9608 17.7896 11.4237 17.3788 11.4889 16.8354L11.6621 15.4734C12.0077 15.3611 12.341 15.2227 12.6576 15.0612L13.7407 15.9023C14.179 16.2428 14.7977 16.203 15.1745 15.8139L16.3155 14.6728C16.7082 14.2917 16.7481 13.6738 16.4075 13.2347L15.5664 12.1523C15.7287 11.8357 15.8671 11.5024 15.9786 11.1569L17.3378 10.9837C17.8833 10.9185 18.2941 10.4555 18.2941 9.9071V8.28424C18.2949 7.73579 17.8841 7.27284 17.3407 7.20764V7.20764ZM9.60092 12.7181C7.60349 12.7181 5.97844 11.0931 5.97844 9.09567C5.97844 7.09824 7.60349 5.4732 9.60092 5.4732C11.5983 5.4732 13.2234 7.09824 13.2234 9.09567C13.2234 11.0931 11.5983 12.7181 9.60092 12.7181Z" fill="#7876A8"/>
</svg>
