<svg width="50" height="59" viewBox="0 0 50 59" fill="none" xmlns="http://www.w3.org/2000/svg">
<path d="M31 35H19C13.9626 35.0056 9.1331 37.0091 5.57111 40.5711C2.00912 44.1331 0.00555846 48.9626 8.05778e-09 54C-2.45488e-05 54.1935 0.0560808 54.3828 0.161514 54.5451C0.266948 54.7073 0.417181 54.8354 0.594 54.914C0.97 55.081 9.961 59 25 59C40.039 59 49.03 55.081 49.406 54.914C49.5828 54.8354 49.7331 54.7073 49.8385 54.5451C49.9439 54.3828 50 54.1935 50 54C49.9944 48.9626 47.9909 44.1331 44.4289 40.5711C40.8669 37.0091 36.0374 35.0056 31 35Z" fill="#7777A1"/>
<path d="M25 30C33.013 30 39 21.588 39 14.067C39 10.354 37.525 6.79303 34.8995 4.16752C32.274 1.54201 28.713 0.0670166 25 0.0670166C21.287 0.0670166 17.726 1.54201 15.1005 4.16752C12.475 6.79303 11 10.354 11 14.067C11 21.588 16.987 30 25 30Z" fill="#7777A1"/>
</svg>
