<svg width="224" height="224" viewBox="0 0 224 224" fill="none" xmlns="http://www.w3.org/2000/svg">
<circle cx="112" cy="112" r="112" fill="#EEEEF3" fill-opacity="0.7"/>
<rect x="65" y="52" width="93" height="120" rx="8" fill="white"/>
<path d="M77 121H147" stroke="#D5D6D7" stroke-width="4" stroke-linecap="round"/>
<path d="M77 136H147" stroke="#D5D6D7" stroke-width="4" stroke-linecap="round"/>
<path d="M89 151H135" stroke="#D5D6D7" stroke-width="4" stroke-linecap="round"/>
<path d="M77 106H147" stroke="#D5D6D7" stroke-width="4" stroke-linecap="round"/>
<path d="M89 91H135" stroke="#D5D6D7" stroke-width="4" stroke-linecap="round"/>
<mask id="path-8-outside-1_454_382" maskUnits="userSpaceOnUse" x="104" y="60" width="16" height="11" fill="black">
<rect fill="white" x="104" y="60" width="16" height="11"/>
<path d="M105.58 62.2102V61.2727H112.125V62.2102H109.381V70H108.324V62.2102H105.58ZM113.62 63.4545L115.188 66.1307L116.756 63.4545H117.915L115.801 66.7273L117.915 70H116.756L115.188 67.4602L113.62 70H112.461L114.54 66.7273L112.461 63.4545H113.62Z"/>
</mask>
<path d="M105.58 62.2102V61.2727H112.125V62.2102H109.381V70H108.324V62.2102H105.58ZM113.62 63.4545L115.188 66.1307L116.756 63.4545H117.915L115.801 66.7273L117.915 70H116.756L115.188 67.4602L113.62 70H112.461L114.54 66.7273L112.461 63.4545H113.62Z" fill="black"/>
<path d="M105.58 62.2102H104.58V63.2102H105.58V62.2102ZM105.58 61.2727V60.2727H104.58V61.2727H105.58ZM112.125 61.2727H113.125V60.2727H112.125V61.2727ZM112.125 62.2102V63.2102H113.125V62.2102H112.125ZM109.381 62.2102V61.2102H108.381V62.2102H109.381ZM109.381 70V71H110.381V70H109.381ZM108.324 70H107.324V71H108.324V70ZM108.324 62.2102H109.324V61.2102H108.324V62.2102ZM106.58 62.2102V61.2727H104.58V62.2102H106.58ZM105.58 62.2727H112.125V60.2727H105.58V62.2727ZM111.125 61.2727V62.2102H113.125V61.2727H111.125ZM112.125 61.2102H109.381V63.2102H112.125V61.2102ZM108.381 62.2102V70H110.381V62.2102H108.381ZM109.381 69H108.324V71H109.381V69ZM109.324 70V62.2102H107.324V70H109.324ZM108.324 61.2102H105.58V63.2102H108.324V61.2102ZM113.62 63.4545L114.482 62.949L114.193 62.4545H113.62V63.4545ZM115.188 66.1307L114.325 66.6363L115.188 68.1086L116.051 66.6363L115.188 66.1307ZM116.756 63.4545V62.4545H116.183L115.893 62.949L116.756 63.4545ZM117.915 63.4545L118.755 63.9971L119.751 62.4545H117.915V63.4545ZM115.801 66.7273L114.961 66.1847L114.611 66.7273L114.961 67.2698L115.801 66.7273ZM117.915 70V71H119.751L118.755 69.4575L117.915 70ZM116.756 70L115.905 70.5254L116.198 71H116.756V70ZM115.188 67.4602L116.039 66.9349L115.188 65.5568L114.337 66.9349L115.188 67.4602ZM113.62 70V71H114.177L114.471 70.5254L113.62 70ZM112.461 70L111.617 69.4637L110.64 71H112.461V70ZM114.54 66.7273L115.384 67.2636L115.725 66.7273L115.384 66.191L114.54 66.7273ZM112.461 63.4545V62.4545H110.64L111.617 63.9909L112.461 63.4545ZM112.757 63.9601L114.325 66.6363L116.051 65.6251L114.482 62.949L112.757 63.9601ZM116.051 66.6363L117.619 63.9601L115.893 62.949L114.325 65.6251L116.051 66.6363ZM116.756 64.4545H117.915V62.4545H116.756V64.4545ZM117.075 62.912L114.961 66.1847L116.642 67.2698L118.755 63.9971L117.075 62.912ZM114.961 67.2698L117.075 70.5425L118.755 69.4575L116.642 66.1847L114.961 67.2698ZM117.915 69H116.756V71H117.915V69ZM117.607 69.4746L116.039 66.9349L114.337 67.9856L115.905 70.5254L117.607 69.4746ZM114.337 66.9349L112.769 69.4746L114.471 70.5254L116.039 67.9856L114.337 66.9349ZM113.62 69H112.461V71H113.62V69ZM113.305 70.5363L115.384 67.2636L113.696 66.191L111.617 69.4637L113.305 70.5363ZM115.384 66.191L113.305 62.9182L111.617 63.9909L113.696 67.2636L115.384 66.191ZM112.461 64.4545H113.62V62.4545H112.461V64.4545Z" fill="black" mask="url(#path-8-outside-1_454_382)"/>
</svg>
