<svg width="21" height="22" viewBox="0 0 21 22" fill="none" xmlns="http://www.w3.org/2000/svg">
<path d="M20.5634 11.2235C20.5634 10.3961 20.4949 9.79236 20.3467 9.16626H10.7063V12.9005H16.365C16.2509 13.8285 15.6349 15.2261 14.2658 16.1652L14.2466 16.2902L17.2947 18.6044L17.5059 18.625C19.4453 16.8696 20.5634 14.2869 20.5634 11.2235Z" fill="#4285F4"/>
<path d="M10.7051 21.0624C13.4773 21.0624 15.8047 20.1679 17.5046 18.6251L14.2646 16.1652C13.3975 16.7578 12.2338 17.1715 10.7051 17.1715C7.98983 17.1715 5.68529 15.4162 4.86379 12.99L4.74338 13L1.57392 15.4039L1.53247 15.5168C3.22094 18.8039 6.68919 21.0624 10.7051 21.0624Z" fill="#34A853"/>
<path d="M4.8655 12.9902C4.64874 12.3641 4.52329 11.6932 4.52329 11C4.52329 10.3068 4.64874 9.63597 4.8541 9.00987L4.84836 8.87652L1.63917 6.43408L1.53418 6.48303C0.838274 7.84707 0.438965 9.37884 0.438965 11C0.438965 12.6212 0.838274 14.1529 1.53418 15.5169L4.8655 12.9902Z" fill="#FBBC05"/>
<path d="M10.7051 4.82831C12.6332 4.82831 13.9338 5.64448 14.6753 6.32654L17.5732 3.55375C15.7935 1.93257 13.4774 0.9375 10.7051 0.9375C6.68922 0.9375 3.22095 3.19595 1.53247 6.48301L4.8524 9.00985C5.68532 6.58367 7.98987 4.82831 10.7051 4.82831Z" fill="#EB4335"/>
</svg>
