<svg width="19" height="19" viewBox="0 0 19 19" fill="none" xmlns="http://www.w3.org/2000/svg">
<path d="M18.6425 9.11532C18.968 8.75725 18.9366 8.20843 18.5723 7.88982L10.5455 0.866356C10.1812 0.547746 9.59704 0.554421 9.24038 0.881402L1.18632 8.26429C0.829654 8.59127 0.812149 9.13938 1.14756 9.48802L1.34949 9.69832C1.68449 10.047 2.22599 10.0885 2.55818 9.79088L3.16009 9.25185V17.1434C3.16009 17.6276 3.55241 18.0196 4.03624 18.0196H7.17574C7.65956 18.0196 8.05188 17.6276 8.05188 17.1434V11.6225H12.0563V17.1434C12.0494 17.6273 12.3956 18.0192 12.8794 18.0192H16.2065C16.6903 18.0192 17.0826 17.6273 17.0826 17.1431V9.36297C17.0826 9.36297 17.2489 9.50863 17.454 9.6889C17.6587 9.86881 18.0887 9.72455 18.4143 9.36613L18.6425 9.11532Z" fill="#7876A8"/>
</svg>
