<?xml version="1.0" encoding="UTF-8"?>
<svg id="Layer_1" data-name="Layer 1" xmlns="http://www.w3.org/2000/svg" viewBox="0 0 317.73 96.93">
  <defs>
    <style>
      .cls-1, .cls-2 {
        stroke-width: 0px;
      }

      .cls-1, .cls-3 {
        fill: #a0cfc0;
      }

      .cls-4, .cls-2 {
        fill: #7878a0;
      }

      .cls-5 {
        font-family: MVBoli, 'MV Boli';
        font-size: 72px;
      }
    </style>
  </defs>
  <text class="cls-5" transform="translate(64.78 75.48)"><tspan class="cls-4" x="0" y="0">avi</tspan><tspan class="cls-3" x="88.35" y="0">Dent</tspan></text>
  <path class="cls-1" d="m39.84,13.14c-4.46,1.74-9.2.43-13.11-1.86C20.78,7.78,8.83-6.67,2.27,3.66.26,6.83-.41,12.59.24,16.19c.51,2.81,1.7,5.53,2.62,8.23.77,2.27,2.22,4.28,3.1,6.52,1.95,4.97,3.54,10.18,4.81,15.34,1.24,5,1.75,10.12,2.86,15.14.25,1.14.62,2.25,1.04,3.34.17.44.31.89.47,1.33l3.4-11.35c-.26-1.31-.67-2.66-.87-3.66-.43-2.24-.96-4.46-1.61-6.65-.98-3.3-2.31-6.51-3.97-9.57-1.9-3.5-4.47-6.62-6.23-10.2C2.59,18.02.89,11.57,3.84,4.56c2.08-4.95,9.2.45,11.62,2.31,4.03,3.12,8.06,6.92,13.19,8.58,5.55,1.8,11.89.05,15.38-4.38-.67.85-3.16,1.66-4.18,2.06Z"/>
  <path class="cls-1" d="m73.14,15.46c-.63-4.82-3.07-10.69-8.59-11.23-2.84-.28-5.84,1.17-8.08,2.8-5.22,3.78-8.68,9.45-14.74,12.17-3.93,1.76-7.85,1.36-11.85.09-1.05-.33-2.56-.54-3.5-1.11,3.65,2.21,7.1,3.89,11.49,3.59,4.16-.28,8.1-2.19,11.31-4.72,2.44-1.92,4.31-3.85,6.46-6.04,1.89-1.93,5.04-5.1,8.01-4.76,2.06.24,3.42,2.1,3.9,3.99.66,2.57.13,5.31-.39,7.85l5.83,5.16c.23-1.66.34-3.95.34-4.29.03-1.16-.04-2.33-.19-3.49Z"/>
  <path class="cls-2" d="m66.41,20.91c-.08.41-.15.82-.2,1.2-.06.45-.1.84-.12,1.2s-.04.6-.04.74c-.07.84-.2,1.84-.39,2.99s-.4,2.33-.65,3.53-.5,2.39-.77,3.55-.52,2.2-.76,3.11c-.94,3.73-1.79,6.95-2.57,9.67s-1.48,5.07-2.13,7.05-1.23,3.67-1.76,5.06-1.01,2.63-1.46,3.71c-.12.33-.24.75-.37,1.27s-.25,1.02-.37,1.51-.22.91-.32,1.27-.18.53-.25.53c-.12,0-.3-.15-.54-.46s-.52-.68-.81-1.12-.58-.92-.86-1.42-.53-.94-.74-1.32c-1.31-2.44-2.48-4.94-3.52-7.51s-1.96-5.08-2.79-7.54-1.59-4.82-2.29-7.07-1.34-4.27-1.93-6.05-1.18-3.28-1.74-4.5-1.15-2.03-1.76-2.43c-.52-.47-1.1-.93-1.74-1.39s-1.38-.69-2.2-.69c-.87,0-1.58.19-2.14.58s-1.02.87-1.37,1.44-.63,1.21-.84,1.9-.39,1.34-.53,1.95l-10.41,33.68-.91,3.62c-.08.29-.14.55-.21.79l2.61,5.7c.49-.05.97-.27,1.44-.66.55-.46.97-1.13,1.25-2.02.07-.26.23-.79.49-1.58s.54-1.68.84-2.65.61-1.94.91-2.9.56-1.75.77-2.36c.26-.77.59-1.79.98-3.06s.82-2.64,1.27-4.13.91-3.03,1.39-4.62.93-3.11,1.34-4.54.78-2.71,1.11-3.85.57-2.01.74-2.62c.05-.16.16-.55.33-1.16s.37-1.24.58-1.88.42-1.22.63-1.74.39-.77.53-.77.26.09.37.26.2.4.28.69.16.59.25.93.17.67.26,1l.21.81c.75,2.88,1.58,5.9,2.5,9.05s1.96,6.27,3.15,9.35,2.53,6.04,4.03,8.86,3.21,5.35,5.13,7.58c.4.47.88.78,1.46.93s1.13.23,1.67.23c.91,0,1.74-.23,2.48-.69s1.4-1.05,1.99-1.79,1.11-1.56,1.56-2.48.86-1.83,1.21-2.74c.8-2.02,1.52-3.91,2.16-5.68s1.24-3.45,1.79-5.03,1.05-3.09,1.51-4.54.9-2.84,1.32-4.2c.23-.77.52-1.75.86-2.94s.7-2.48,1.07-3.9.74-2.9,1.11-4.45.69-3.05.98-4.52.53-2.84.72-4.11c.09-.59.15-1.14.2-1.66l-6.03-4.97Z"/>
</svg>