<svg xmlns="http://www.w3.org/2000/svg" viewBox="0 0 9021.75 1650.85"><defs><style>.cls-1{fill:#5B4B8A;}.cls-2{fill:#60d8b5;}</style></defs><g id="Layer_2" data-name="Layer 2"><g id="Layer_1-2" data-name="Layer 1"><path class="cls-1" d="M2609.67,611.71V760.16C2546.41,676.23,2428,594.8,2255.15,594.8c-269.33,0-482.3,208-482.3,523.64,0,315.06,213,532.41,478.55,532.41,171,0,293.13-81.43,358.27-169.12v152.2h213.6V611.71Zm-310.05,855.61c-157.84,0-310-128.4-310-348.88,0-221.11,152.2-340.12,310-340.12,159.73,0,310.05,124.65,310.05,343.88C2609.67,1342.67,2459.35,1467.32,2299.62,1467.32Z"/><path class="cls-1" d="M3786.61,611.71l-289.38,833.06L3207.85,611.71H2981.11l387.72,1022.22h252.42L4011.47,611.71Z"/><path class="cls-1" d="M4171.2,611.71V1633.93h211.71V611.71ZM4278.93,205.2c-76.42,0-135.29,59.51-135.29,135.29s58.87,135.3,135.29,135.3c73.91,0,133.42-59.5,133.42-135.3S4352.84,205.2,4278.93,205.2Z"/><path class="cls-1" d="M5143.94,325.46h-518V1633.93h518c417.78,0,682.74-276.22,682.74-655.17C5826.68,594.8,5561.72,325.46,5143.94,325.46Zm-28.19,987.78h-125.9V641.15h125.9c209.84,0,342,120.89,342,337.61C5457.75,1194.23,5325.59,1313.24,5115.75,1313.24Z"/><path class="cls-1" d="M6985.45,1101.53c0-323.21-217.35-521.76-525.52-521.76-311.31,0-528.65,202.31-528.65,533,0,332,220.47,534.29,528.65,534.29,259.94,0,454.74-159.73,503-372.69H6575.18c-20.67,42.6-59.51,81.43-129.66,81.43-82.05,0-146.57-48.23-154.08-169.12h688.37A648.16,648.16,0,0,0,6985.45,1101.53Zm-692.14-90.83c16.29-94.58,77.67-142.81,164.74-142.81,83.93,0,156,50.11,156,142.81Z"/><path class="cls-1" d="M7815.38,583.52c-146.57,0-256.19,68.91-317.57,157.85V592.92H7133.89v1041h363.92V1075.22c0-120.26,67-191,174.75-191,104,0,170.37,70.78,170.37,191v558.71h363.92V1027C8206.85,754.52,8056.53,583.52,7815.38,583.52Z"/><path class="cls-1" d="M8916.52,1323.88c-61.38,0-85.81-23.8-85.81-79.54V895.45H9020.5V592.92H8830.71V340.49H8465.54V592.92H8337.13V895.45h128.41V1238.7c0,298.78,168.49,395.23,399,395.23h157.22v-310Z"/><path class="cls-1" d="M385.5,1647.09s13.76-392.65-256.11-971.53S39.32-177.46,415,123.44s701.06,1341.77,891.24,1165.5C1444,1161.35,1429.44,1181,1429.44,1181s15.33,537.72-241.61,456.41-485-913.89-790.28-1106.59S708.86,1231.5,385.5,1647.09Z"/><path class="cls-2" d="M714.94,344.59s220.38,57.06,514.57-214,510.2-25.69,425.91,249.36-363.9,844.15-363.9,844.15S1530.8,284.23,1403.3,239,1005.58,607.58,714.94,344.59Z"/></g></g></svg>