<svg width="15" height="15" viewBox="0 0 15 15" fill="none" xmlns="http://www.w3.org/2000/svg">
<path d="M9.72097 1.80966L1.36881 10.1618C1.33824 10.1924 1.31583 10.2302 1.30364 10.2717L0.0104524 14.6686C-0.0026136 14.7131 -0.00344524 14.7604 0.00804463 14.8054C0.0195345 14.8503 0.0429222 14.8914 0.075753 14.9242C0.108584 14.9571 0.149647 14.9805 0.194633 14.9919C0.239618 15.0034 0.286867 15.0026 0.331421 14.9895L4.72825 13.6964C4.76976 13.6842 4.80756 13.6618 4.83817 13.6312L13.1903 5.27902L9.72097 1.80966Z" fill="#212121"/>
<path d="M14.6219 2.01865L12.9813 0.378115C12.7386 0.13598 12.4098 0 12.0669 0C11.7241 0 11.3952 0.13598 11.1525 0.378115L10.0867 1.44396L13.556 4.91331L14.6219 3.84747C14.864 3.60475 15 3.2759 15 2.93306C15 2.59021 14.864 2.26137 14.6219 2.01865Z" fill="#212121"/>
</svg>
