<svg width="96" height="96" xmlns="http://www.w3.org/2000/svg" xmlns:xlink="http://www.w3.org/1999/xlink" xml:space="preserve" overflow="hidden"><g transform="translate(-592 -312)"><path d="M658 374.5 657.9 394.5 622.2 394.5 622 374.5 658 374.5ZM616.2 400.5 663.8 400.5 663.9 368.5 616 368.5 616.2 400.5Z"/><path d="M630 378.5 650 378.5 650 382.5 630 382.5Z"/><path d="M630 386.5 650 386.5 650 390.5 630 390.5Z"/><path d="M658 349 622 349 622 326 644 326 644 340 658 340 658 349ZM650 326.4 656.9 334 650 334 650 326.4ZM606 354C603.8 354 602 352.2 602 350 602 347.8 603.8 346 606 346 608.2 346 610 347.8 610 350 610 352.2 608.2 354 606 354ZM680 340 664 340 664 332.8 652.3 320 616 320 616 340 600 340C597.8 340 596 341.8 596 344L596 384C596 386.2 597.8 388 600 388L612 388 612 365 668 365 668 388 680 388C682.2 388 684 386.2 684 384L684 344C684 341.8 682.2 340 680 340Z"/></g></svg>