<svg width="19" height="19" viewBox="0 0 19 19" fill="none" xmlns="http://www.w3.org/2000/svg">
<path d="M17.7357 12.9307L15.8624 11.0574C15.5018 10.6969 15.0224 10.4983 14.5125 10.4983C14.0026 10.4983 13.5232 10.6969 13.1626 11.0574L12.8193 11.4008C12.5564 11.6636 12.2318 11.7914 11.8268 11.7914C11.8267 11.7914 11.8267 11.7914 11.8266 11.7914C10.3291 11.7913 8.1998 10.0687 7.44517 8.24681C7.18744 7.62469 7.00358 6.75976 7.59082 6.17247L7.93706 5.82627C8.29792 5.46546 8.49645 4.9857 8.49622 4.47546C8.49593 3.96513 8.29687 3.48556 7.93568 3.12504L6.06044 1.25381C5.70006 0.89415 5.22116 0.696045 4.71193 0.696045C4.20202 0.696045 3.72264 0.89458 3.36207 1.25515L2.42453 2.1927C0.736649 3.88058 0.446109 6.35237 1.60636 9.15278C2.50822 11.3295 4.24072 13.5593 6.35963 15.2704C8.60647 17.0848 10.9764 18.0839 13.0334 18.0839H13.0345C14.5262 18.0837 15.7928 17.5733 16.799 16.5671L17.7356 15.6305C18.0962 15.2699 18.2948 14.7905 18.2948 14.2806C18.2948 13.7707 18.0962 13.2912 17.7357 12.9307Z" fill="#D5D6D7"/>
</svg>
