<svg width="25" height="25" viewBox="0 0 25 25" fill="none" xmlns="http://www.w3.org/2000/svg">
<path d="M21.2454 20.0956L17.7678 16.6283C18.8899 15.1989 19.4987 13.4337 19.4964 11.6165C19.4964 9.99814 19.0165 8.41613 18.1174 7.07052C17.2183 5.72491 15.9404 4.67614 14.4452 4.05682C12.95 3.43751 11.3048 3.27546 9.71755 3.59119C8.13029 3.90691 6.6723 4.68622 5.52796 5.83057C4.38361 6.97492 3.6043 8.4329 3.28858 10.0202C2.97285 11.6074 3.13489 13.2526 3.75421 14.7478C4.37353 16.243 5.4223 17.5209 6.76791 18.42C8.11352 19.3191 9.69553 19.799 11.3139 19.799C13.1311 19.8013 14.8962 19.1925 16.3257 18.0705L19.793 21.548C19.8881 21.6439 20.0012 21.72 20.1259 21.7719C20.2505 21.8238 20.3842 21.8506 20.5192 21.8506C20.6542 21.8506 20.7879 21.8238 20.9126 21.7719C21.0372 21.72 21.1503 21.6439 21.2454 21.548C21.3413 21.4529 21.4174 21.3398 21.4693 21.2152C21.5212 21.0905 21.548 20.9569 21.548 20.8218C21.548 20.6868 21.5212 20.5531 21.4693 20.4285C21.4174 20.3038 21.3413 20.1907 21.2454 20.0956ZM5.17698 11.6165C5.17698 10.4027 5.53691 9.21622 6.21124 8.20701C6.88557 7.19781 7.84402 6.41123 8.96539 5.94674C10.0868 5.48225 11.3207 5.36072 12.5111 5.59751C13.7016 5.83431 14.7951 6.41879 15.6533 7.27705C16.5116 8.13531 17.0961 9.2288 17.3329 10.4192C17.5696 11.6097 17.4481 12.8436 16.9836 13.965C16.5191 15.0863 15.7326 16.0448 14.7234 16.7191C13.7141 17.3935 12.5276 17.7534 11.3139 17.7534C9.68627 17.7534 8.12533 17.1068 6.97444 15.9559C5.82355 14.805 5.17698 13.2441 5.17698 11.6165Z" fill="#D5D6D7"/>
</svg>
