<svg width="20" height="20" viewBox="0 0 20 20" fill="none" xmlns="http://www.w3.org/2000/svg">
<path opacity="0.3" d="M10 2C5.59 2 2 5.59 2 10C2 14.41 5.59 18 10 18C14.41 18 18 14.41 18 10C18 5.59 14.41 2 10 2ZM11 13H7V15.5L3.5 12L7 8.5V11H11V13ZM13 11.5V9H9V7H13V4.5L16.5 8L13 11.5Z" fill="#FF1E1E"/>
<path d="M10 0C4.48 0 0 4.48 0 10C0 15.52 4.48 20 10 20C15.52 20 20 15.52 20 10C20 4.48 15.52 0 10 0ZM10 18C5.59 18 2 14.41 2 10C2 5.59 5.59 2 10 2C14.41 2 18 5.59 18 10C18 14.41 14.41 18 10 18ZM13 4.5V7H9V9H13V11.5L16.5 8L13 4.5ZM7 8.5L3.5 12L7 15.5V13H11V11H7V8.5Z" fill="#FF1E1E"/>
</svg>
