<svg width="25" height="21" viewBox="0 0 25 21" fill="none" xmlns="http://www.w3.org/2000/svg">
<path d="M7.81515 20.5C4.98452 20.5 2.3459 19.6767 0.125 18.2562C2.01062 18.3782 5.33831 18.086 7.40813 16.1117C4.29444 15.9688 2.89023 13.5808 2.70707 12.5602C2.97163 12.6623 4.23339 12.7847 4.94567 12.499C1.36391 11.6009 0.814437 8.45766 0.936542 7.49835C1.60812 7.9678 2.74777 8.13108 3.19549 8.09026C-0.142056 5.70221 1.05865 2.10991 1.64882 1.33431C4.04397 4.65258 7.63355 6.51625 12.0743 6.61991C11.9906 6.25269 11.9464 5.87037 11.9464 5.47769C11.9464 2.65955 14.2242 0.375 17.0341 0.375C18.5022 0.375 19.8251 0.99866 20.7537 1.99623C21.7348 1.76634 23.2113 1.22818 23.9331 0.762804C23.5692 2.06909 22.4366 3.1588 21.7514 3.56269C21.7458 3.54889 21.7571 3.57643 21.7514 3.56269C22.3533 3.47166 23.9817 3.1587 24.625 2.72224C24.3069 3.45609 23.106 4.67626 22.1205 5.35937C22.3039 13.4458 16.1169 20.5 7.81515 20.5Z" fill="#47ACDF"/>
</svg>
