<svg width="18" height="18" viewBox="0 0 18 18" fill="none" xmlns="http://www.w3.org/2000/svg">
<path d="M16.4337 6.8059L15.0717 6.63275C14.9594 6.28716 14.821 5.9539 14.6594 5.63729L15.5006 4.55417C15.8411 4.11585 15.8012 3.49714 15.4122 3.1204L14.2711 1.97932C13.8907 1.58664 13.272 1.54752 12.833 1.88731L11.7513 2.72845C11.4347 2.56688 11.1014 2.42851 10.7551 2.31621L10.582 0.956333C10.5168 0.410789 10.0538 0 9.50537 0H7.8825C7.33406 0 6.87111 0.410789 6.8059 0.95416L6.63275 2.31621C6.28644 2.42851 5.95317 2.56616 5.63657 2.72845L4.55417 1.88731C4.11658 1.54752 3.49786 1.58664 3.1204 1.9757L1.97932 3.11605C1.58664 3.49714 1.5468 4.11585 1.88731 4.5549L2.72845 5.63729C2.56616 5.9539 2.42851 6.28716 2.31621 6.63275L0.956333 6.8059C0.410788 6.87111 0 7.33406 0 7.8825V9.50537C0 10.0538 0.410788 10.5168 0.954159 10.582L2.31621 10.7551C2.42851 11.1007 2.56688 11.434 2.72845 11.7506L1.88731 12.8337C1.5468 13.272 1.58664 13.8907 1.9757 14.2675L3.11678 15.4086C3.49786 15.8005 4.11585 15.8396 4.5549 15.4998L5.63729 14.6587C5.9539 14.821 6.28716 14.9594 6.63275 15.0709L6.8059 16.4301C6.87111 16.9771 7.33406 17.3879 7.8825 17.3879H9.50537C10.0538 17.3879 10.5168 16.9771 10.582 16.4337L10.7551 15.0717C11.1007 14.9594 11.434 14.821 11.7506 14.6594L12.8337 15.5006C13.272 15.8411 13.8907 15.8012 14.2675 15.4122L15.4085 14.2711C15.8012 13.89 15.8411 13.272 15.5006 12.833L14.6594 11.7506C14.8217 11.434 14.9601 11.1007 15.0717 10.7551L16.4308 10.582C16.9764 10.5168 17.3871 10.0538 17.3871 9.50537V7.8825C17.3879 7.33406 16.9771 6.87111 16.4337 6.8059ZM8.69393 12.3164C6.6965 12.3164 5.07146 10.6914 5.07146 8.69394C5.07146 6.6965 6.6965 5.07146 8.69393 5.07146C10.6914 5.07146 12.3164 6.6965 12.3164 8.69394C12.3164 10.6914 10.6914 12.3164 8.69393 12.3164Z" fill="#7777A1"/>
</svg>
